<svg width="23" height="18" viewBox="0 0 23 18" fill="none" xmlns="http://www.w3.org/2000/svg">
    <path d="M16.7906 5.53279C14.5733 5.53279 13.387 6.28525 12.5533 7.09967L12.3262 7.33574V0H10.4108V12.0039C10.4108 15.6984 13.2914 18 16.5993 18C20.2419 18 23 15.2321 23 11.6734C22.997 8.37148 20.1224 5.53279 16.7906 5.53279ZM16.5993 16.2797C14.1938 16.2797 12.1589 14.4059 12.1589 11.8977C12.1589 9.38656 13.8741 7.32689 16.6412 7.32689C19.4082 7.32689 21.0398 9.53705 21.0398 11.8505C21.0398 14.3705 19.3156 16.2797 16.5993 16.2797Z"
          fill="#00673B"/>
    <path d="M6.571 1.4518C6.08094 0.941311 4.22827 -0.182951 4.45836 0.0619669C6.80707 2.56426 8.00832 5.5977 8.47148 6.43869C8.04716 5.9282 7.54814 5.47082 6.97739 4.90131C6.49331 4.41738 5.98831 3.9777 5.50721 3.68557C5.19046 3.49082 5.01416 3.38459 4.69144 3.22229C3.24516 2.48164 1.84371 2.03016 1.30583 1.89738C0.648434 1.73508 0 1.69377 0 1.69377C0 1.69377 2.0977 3.44066 2.99415 4.55311C3.8936 5.66557 4.80798 6.66295 5.82097 7.07016C6.83396 7.47738 7.18657 7.59541 7.98142 7.71344C8.6687 7.81672 9.50539 7.97016 9.50539 7.97016L8.65675 5.22C8.15175 3.7741 7.99935 2.94197 6.571 1.4518Z"
          fill="#00673B"/>
</svg>
