<svg width="27" height="17" viewBox="0 0 27 17" fill="none" xmlns="http://www.w3.org/2000/svg">
    <g clip-path="url(#clip0_729_633)">
        <path fill-rule="evenodd" clip-rule="evenodd"
              d="M16.1468 12.3211L15.8302 12.0638H15.4223H6.60638C3.59232 12.0638 1.14894 9.62045 1.14894 6.60638C1.14894 3.59232 3.59232 1.14894 6.60638 1.14894H20.3936C23.4077 1.14894 25.8511 3.59232 25.8511 6.60638C25.8511 9.62045 23.4077 12.0638 20.3936 12.0638H18.9574H17.8085V13.2128V13.6712L16.1468 12.3211ZM18.9574 16.0851V14.6047V14.3617V13.2128H20.1064H20.3936C24.0422 13.2128 27 10.255 27 6.60638C27 2.95778 24.0422 0 20.3936 0H6.60638C2.95778 0 0 2.95778 0 6.60638C0 10.255 2.95778 13.2128 6.60638 13.2128H15.4223L17.8085 15.1516L18.9574 16.0851ZM13.2128 8.61702C14.1646 8.61702 14.9362 7.84542 14.9362 6.89361C14.9362 5.9418 14.1646 5.17021 13.2128 5.17021C12.261 5.17021 11.4894 5.9418 11.4894 6.89361C11.4894 7.84542 12.261 8.61702 13.2128 8.61702ZM21.2554 6.89361C21.2554 7.84542 20.4838 8.61702 19.532 8.61702C18.5802 8.61702 17.8086 7.84542 17.8086 6.89361C17.8086 5.9418 18.5802 5.17021 19.532 5.17021C20.4838 5.17021 21.2554 5.9418 21.2554 6.89361ZM6.89362 8.61703C7.84543 8.61703 8.61702 7.84543 8.61702 6.89362C8.61702 5.94181 7.84543 5.17022 6.89362 5.17022C5.94181 5.17022 5.17021 5.94181 5.17021 6.89362C5.17021 7.84543 5.94181 8.61703 6.89362 8.61703Z"
              fill="currentcolor"/>
    </g>
    <defs>
        <clipPath id="clip0_729_633">
            <rect width="27" height="16.0851" fill="white"/>
        </clipPath>
    </defs>
</svg>
