<svg width="25" height="14" viewBox="0 0 25 14" fill="none" xmlns="http://www.w3.org/2000/svg">
    <path d="M18.8993 11.4525C19.1736 11.6304 19.2122 11.7411 19.2175 11.7597C19.2122 11.7783 19.1736 11.889 18.8993 12.0669C18.5954 12.264 18.1176 12.4633 17.4758 12.6394C16.2005 12.9892 14.4061 13.2127 12.4011 13.2127C10.3962 13.2127 8.60179 12.9892 7.32644 12.6394C6.68467 12.4633 6.20687 12.264 5.90297 12.0669C5.62859 11.889 5.59001 11.7783 5.58476 11.7597C5.59001 11.7411 5.62859 11.6304 5.90297 11.4525C6.20687 11.2554 6.68467 11.056 7.32644 10.88C8.60179 10.5302 10.3962 10.3066 12.4011 10.3066C14.4061 10.3066 16.2005 10.5302 17.4758 10.88C18.1176 11.056 18.5954 11.2554 18.8993 11.4525Z"
          stroke="currentcolor" stroke-width="1.14894"/>
    <mask id="path-2-inside-1_729_617" fill="white">
        <path fill-rule="evenodd" clip-rule="evenodd"
              d="M19.7928 6.35294L19.7928 6.35936V11.7597H19.7927C19.7927 12.8795 16.4834 13.7872 12.4011 13.7872C8.31885 13.7872 5.00952 12.8795 5.00952 11.7597C5.00952 11.7576 5.00953 11.7554 5.00956 11.7533V6.35297H5.00959L5.00959 6.35294C5.00959 5.23317 8.31893 4.32541 12.4012 4.32541C16.4835 4.32541 19.7928 5.23317 19.7928 6.35294Z"/>
    </mask>
    <path d="M19.7928 6.35936L18.6438 6.35287V6.35936H19.7928ZM19.7928 6.35294L20.9417 6.35943V6.35294H19.7928ZM19.7928 11.7597V12.9087H20.9417V11.7597H19.7928ZM19.7927 11.7597V10.6108H18.6438L18.6438 11.7597L19.7927 11.7597ZM5.00956 11.7533L6.15849 11.7663V11.7533H5.00956ZM5.00956 6.35297V5.20404H3.86062V6.35297H5.00956ZM5.00959 6.35297V7.50191H6.15856L6.15853 6.35294L5.00959 6.35297ZM5.00959 6.35294H3.86066V6.35298L5.00959 6.35294ZM20.9417 6.36585L20.9417 6.35943L18.6439 6.34645L18.6438 6.35287L20.9417 6.36585ZM20.9417 11.7597V6.35936H18.6438V11.7597H20.9417ZM19.7927 12.9087H19.7928V10.6108H19.7927V12.9087ZM18.6438 11.7597C18.6438 11.4344 18.8704 11.401 18.5867 11.585C18.3529 11.7366 17.9386 11.9168 17.3238 12.0854C16.1107 12.4181 14.3699 12.6383 12.4011 12.6383V14.9362C14.5146 14.9362 16.4695 14.7025 17.9317 14.3014C18.6546 14.1031 19.3227 13.8464 19.837 13.5129C20.3013 13.2118 20.9416 12.645 20.9417 11.7598L18.6438 11.7597ZM12.4011 12.6383C10.4324 12.6383 8.6915 12.4181 7.4784 12.0854C6.86367 11.9168 6.44932 11.7366 6.21555 11.585C5.93183 11.401 6.15846 11.4344 6.15846 11.7597H3.86059C3.86059 12.6449 4.50088 13.2118 4.96523 13.5129C5.47953 13.8464 6.14766 14.1031 6.87054 14.3014C8.33268 14.7025 10.2876 14.9362 12.4011 14.9362V12.6383ZM6.15846 11.7597C6.15846 11.7619 6.15845 11.7641 6.15842 11.7663L3.8607 11.7403C3.86062 11.7468 3.86059 11.7532 3.86059 11.7597H6.15846ZM3.86062 6.35297V11.7533H6.15849V6.35297H3.86062ZM5.00959 5.20404H5.00956V7.50191H5.00959V5.20404ZM3.86066 6.35298V6.35301L6.15853 6.35294V6.35291L3.86066 6.35298ZM12.4012 3.17647C10.2877 3.17647 8.33275 3.41018 6.87061 3.81125C6.14773 4.00954 5.4796 4.26624 4.96531 4.59977C4.50096 4.90091 3.86066 5.46771 3.86066 6.35294H6.15853C6.15853 6.67828 5.9319 6.7117 6.21562 6.5277C6.4494 6.37609 6.86374 6.19589 7.47847 6.02727C8.69157 5.69451 10.4324 5.47435 12.4012 5.47435V3.17647ZM20.9417 6.35294C20.9417 5.46771 20.3014 4.90091 19.8371 4.59977C19.3228 4.26624 18.6547 4.00954 17.9318 3.81125C16.4696 3.41018 14.5147 3.17647 12.4012 3.17647V5.47435C14.3699 5.47435 16.1108 5.69451 17.3239 6.02727C17.9386 6.19589 18.353 6.37609 18.5868 6.5277C18.8705 6.7117 18.6439 6.67828 18.6439 6.35294H20.9417Z"
          fill="currentcolor" mask="url(#path-2-inside-1_729_617)"/>
    <path fill-rule="evenodd" clip-rule="evenodd"
          d="M12.4228 1.38008L2.4712 5.87186L5.00947 7.1293V8.52523L0.841427 6.46041C0.41359 6.24846 0.422312 5.41447 0.854405 5.21944L12.4181 0L24.0672 5.09451C24.5017 5.28454 24.5146 6.12133 24.0864 6.33638L19.7927 8.49241V7.09428L22.4443 5.76279L12.4228 1.38008Z"
          fill="currentcolor"/>
    <ellipse cx="2.29786" cy="8.68084" rx="0.574468" ry="0.638298" fill="currentcolor"/>
    <path d="M2.29919 8.79349V6.76596" stroke="currentcolor" stroke-width="0.574468"/>
    <path d="M2.01062 8.68082H2.58509L2.87232 11.8723H1.72339L2.01062 8.68082Z" fill="currentcolor"/>
</svg>
